<?xml version="1.0" encoding="utf-8"?>
<!-- Generator: Adobe Illustrator 24.1.1, SVG Export Plug-In . SVG Version: 6.00 Build 0)  -->
<svg version="1.1" id="Layer_1" xmlns="http://www.w3.org/2000/svg" xmlns:xlink="http://www.w3.org/1999/xlink" x="0px" y="0px"
	 viewBox="0 0 512 512" style="enable-background:new 0 0 512 512;" xml:space="preserve">
<g>
	<path d="M85.33,17.07v17.07H409.6v419.6L268.07,312.2c-6.67-6.67-17.47-6.67-24.14,0L102.4,453.73V17.07H85.33v17.07V17.07H68.27
		v477.87c0,6.9,4.16,13.13,10.54,15.77c6.38,2.64,13.72,1.18,18.6-3.7L256,348.4L414.6,507c4.88,4.88,12.22,6.34,18.6,3.7
		c6.38-2.64,10.54-8.87,10.54-15.77V17.07c0-4.49-1.82-8.89-5-12.07c-3.18-3.18-7.57-5-12.07-5H85.33c-4.49,0-8.89,1.82-12.07,5
		c-3.18,3.18-5,7.57-5,12.07H85.33z"/>
</g>
</svg>
