<?xml version="1.0" encoding="utf-8"?>
<!-- Generator: Adobe Illustrator 24.1.1, SVG Export Plug-In . SVG Version: 6.00 Build 0)  -->
<svg version="1.1" id="Layer_1" xmlns="http://www.w3.org/2000/svg" xmlns:xlink="http://www.w3.org/1999/xlink" x="0px" y="0px"
	 viewBox="0 0 512 512" style="enable-background:new 0 0 512 512;" xml:space="preserve">
<style type="text/css">
	.st0{fill-rule:evenodd;clip-rule:evenodd;}
</style>
<g>
	<path class="st0" d="M243,5.4c7.1-7.2,18.7-7.2,25.9,0l0,0l219.4,219.4c3.4,3.4,5.3,8.1,5.3,12.9v256c0,10.1-8.2,18.3-18.3,18.3
		H310.9c-10.1,0-18.3-8.2-18.3-18.3V347.4h-73.1v146.3c0,10.1-8.2,18.3-18.3,18.3H36.6c-10.1,0-18.3-8.2-18.3-18.3v-256
		c0-4.8,1.9-9.5,5.3-12.9L243,5.4z M54.9,245.3v230.1h128V329.2c0-10.1,8.2-18.3,18.3-18.3h109.7c10.1,0,18.3,8.2,18.3,18.3v146.3
		h128V245.3L256,44.2L54.9,245.3z"/>
	<path class="st0" d="M438.8,54.9v128l-73.1-73.1V54.9c0-10.1,8.2-18.3,18.3-18.3h36.6C430.7,36.6,438.8,44.8,438.8,54.9z"/>
</g>
</svg>
